<svg width="982" height="464" viewBox="0 0 982 464" fill="none" xmlns="http://www.w3.org/2000/svg">
<rect width="982" height="464" fill="white"/>
<path d="M321.419 169.699L314.789 309.161C319.367 335.217 328.892 342.682 355.652 345.96C347.78 328.519 345.954 318.136 355.652 296.596C368.634 271.005 376.895 257.667 405.43 248.129C429.273 244.881 437.218 252.234 447.779 271.465C395.773 268.541 385.849 278.402 368.86 295.284C368.425 295.717 367.985 296.154 367.539 296.596C374.421 324.192 384.772 329.204 408.402 329.804C438.341 323.561 454.847 314.593 484.185 296.596L469.325 333.394C408.653 368.392 380.234 373.476 331.877 376.476C311.809 368.107 306.91 358.296 300.672 338.78C297.107 355.524 294.941 364.445 288.042 371.988C270.078 397.762 258.979 397.76 239.006 395.324C225.44 383.266 224.16 372.5 226.376 350.447C195.25 390.941 174.993 399.926 137.22 407.89C114.322 409.736 107.049 402.714 94.8707 389.041C86.901 377.804 83.5582 370.787 80.0114 356.73C78.5078 359.972 77.0464 363.126 75.6232 366.198C55.6949 409.209 43.2556 436.057 27.2608 461.741C12.8343 463.274 7.16156 458.343 2 437.508V376.476L11.6586 338.78H16.8593L9.42966 376.476C11.009 413.288 14.3528 425.429 27.2608 423.148C48.4797 394.68 58.0202 373.255 72.4207 340.916C74.1303 337.076 75.9083 333.084 77.7825 328.907C87.4138 315.88 91.5515 314.857 94.8707 333.394C103.262 362.724 112.905 370.526 137.22 371.988C180.882 368.364 201.855 348.54 239.006 311.854V350.447C261.557 367.095 272.962 361.605 291.757 333.394C298.842 260.423 303.02 210.627 305.101 150.505M321.419 169.699C315.01 164.987 311.795 158.077 308.102 146.708C307.091 148.004 306.091 149.269 305.101 150.505M321.419 169.699C324.039 171.626 327.194 173.185 331.134 174.531C344.79 168.125 352.323 161.252 365.31 137.732C366.514 153.199 367.775 161.407 391.314 159.273C407.109 150.418 413.674 142.962 420.29 124.269C425.522 98.4669 425.023 87.4911 418.061 74.0075L403.944 102.729L408.402 114.396C406.989 120.947 402.983 122.509 394.286 124.269C385.848 123.808 381.631 123.076 380.17 116.192L378.684 88.368L365.31 107.216C359.146 130.183 353.442 139.058 334.106 138.63C328.549 136.72 325.259 134.146 323.317 129.776M305.101 150.505C270.589 193.581 248.141 200.639 208.544 209.535C189.884 210.189 181.025 207.706 167.681 198.765L165.452 212.228C185.173 216.558 192.902 224.11 203.344 242.744C201.465 260.836 198.943 269.773 191.456 283.133C159.256 260.037 141.195 263.251 108.987 278.645C68.3925 317.62 50.3751 331.547 28.7467 338.78C13.7264 338.766 12.0422 325.506 9.42964 301.083C9.33728 274.928 12.8103 262.938 20.5741 242.744C32.4763 217.812 40.8064 206.619 56.9794 188.892V201.457C37.6488 221.206 31.066 238.01 20.5741 269.67C16.4668 281.938 17.1897 288.815 20.5741 301.083C28.1469 308.941 33.4661 310.404 47.3209 301.083L99.3285 254.412C119.214 238.756 130.986 233.126 153.565 231.076C156.365 178.618 157.587 149.41 153.565 100.933L170.653 67.7248V138.63C174.877 162.955 182.758 169.945 203.344 174.531C235.987 174.304 254.178 166.012 286.556 146.708L305.756 128.555M305.756 128.555L320.732 114.396C321.011 121.217 321.693 126.123 323.317 129.776M305.756 128.555C306.178 111.879 306.459 94.2026 306.616 74.9051L327.419 43.4914L323.317 129.776M721.884 230.713C721.901 231.726 721.917 232.745 721.934 233.768C729.588 260.996 741.236 270.788 776.17 277.747C806.216 280.682 821.785 277.596 843.037 248.129C850.295 268.608 857.185 276.351 872.756 285.825C887.779 255.027 896.223 237.787 932.936 231.973C960.322 245.07 969.856 261.013 979 301.083C977.782 319.045 976.234 328.676 970.084 344.165C927.906 345.95 904.824 342.195 865.326 321.726L849.724 363.013C846.123 360.273 845.347 357.284 846.752 348.652L857.896 315.444C847.267 305.038 842.96 297.952 839.322 282.235C814.959 311.404 801.056 313.961 776.17 313.649L747.195 309.161C724.104 292.767 714.403 281.149 706.331 253.514L683.3 279.542L696.673 282.235C707.186 291.194 705.502 299.173 701.874 313.649C695.867 329.997 690.42 337.301 678.842 348.652C631.612 383.564 603.657 395.073 550.309 396.222C523.538 395.711 512.078 387.517 496.072 363.013C488.968 348.443 487.898 335.943 493.843 301.981L530.992 214.92C535.296 211.843 536.719 212.705 537.678 218.51L510.931 279.542C503.699 298.032 501.814 308.287 505.731 326.214C548.981 377.854 593.953 364.519 678.842 315.444C654.301 307.909 639.849 304.419 610.489 301.981L622.376 266.977C656.761 263.293 675.776 260.583 701.131 234.666C701.131 232.829 701.13 231.011 701.13 229.212M721.884 230.713C718.037 231.334 713.873 231.7 709.303 231.973C706.34 231.098 703.626 230.183 701.13 229.212M721.884 230.713C738.924 227.963 749.747 220.211 762.054 193.379C779.351 220.155 792.427 227.326 822.234 224.793C829.067 214.884 831.797 206.732 834.122 186.199C834.072 157.814 831.313 142.938 822.234 117.987L828.921 105.421L806.632 72.2125L797.716 93.7532C805.377 130.533 811.351 151.532 821.731 188.02L822.234 189.789H795.488C782.09 184.118 775.835 179.244 771.713 161.068L762.054 72.2125L753.881 65.0322L747.938 88.368C754.002 122.147 756.212 141.269 753.881 176.326C752.033 187.019 747.939 191.22 736.05 196.072C730.361 198.762 725.783 200.438 721.316 201.087M701.13 229.212C683.201 222.235 676.448 212.339 668.44 193.379C663.029 162.96 663.719 144.695 666.211 111.704C646.205 145.828 640.517 167.924 631.014 204.844C630.619 206.381 630.216 207.944 629.806 209.535C616.613 234.767 607.72 239.307 588.943 229.281C567.91 203.335 564.229 183.507 568.14 141.322C576.149 102.764 583.551 84.1517 601.573 56.0569L581.513 129.655C577.756 157.963 580.393 170.397 588.943 189.789C601.433 201.005 608.42 200.573 620.89 186.199L661.011 80.2902L673.641 72.2125L678.842 80.2902C675.587 118.37 674.836 139.581 681.814 176.326C687.038 188.799 691.526 193.863 701.064 197.858M701.064 197.858C701.799 198.166 702.563 198.467 703.36 198.765C710.437 201.124 715.792 201.89 721.316 201.087M701.064 197.858C700.796 142.192 699.462 101.743 692.958 38.1062L707.817 10.2827C716.786 84.9112 719.76 131.819 721.316 201.087M95.8499 155.407C95.9688 154.933 96.0856 154.465 96.2008 154.005C98.6852 144.065 100.422 137.118 106.015 126.064C108.997 126.799 110.434 131.817 112.702 146.708L117.903 119.782C113.464 110.686 110.921 106.692 106.015 107.216C99.6584 116.894 97.8159 124.241 94.8707 137.732C89.6228 119.667 86.5839 109.935 78.5255 103.626C71.4185 111.023 70.1454 117.324 70.3528 130.552L80.7544 129.655C83.5623 139.249 86.0291 145.335 92.6672 155.851M95.8499 155.407C94.7865 155.482 93.7299 155.634 92.6672 155.851M95.8499 155.407C100.873 155.057 106.046 156.456 112.702 161.068C112.82 168.087 112.176 171.855 108.987 178.121C101.169 182.244 96.2558 187.116 87.4411 196.072L90.4129 247.231L85.2122 262.489C80.3363 237.435 78.3492 223.158 80.0114 196.072L90.4129 171.839C83.0259 172.94 79.3615 175.856 73.3247 183.506C73.7759 175.08 74.4788 170.24 77.7825 161.068C79.0874 160.568 80.3358 160.072 81.5393 159.595C85.613 157.978 89.1723 156.566 92.6672 155.851M912.876 170.941V186.199C931.853 175.686 942.903 171.41 963.398 167.351V155.683C943.505 156.571 932.421 159.479 912.876 170.941ZM932.193 111.704L924.764 143.118C918.433 118.377 914.873 105.987 908.418 100.036L911.39 83.8804C917.282 90.6161 920.168 97.4854 924.764 114.396L934.422 94.6508C939.182 96.6004 940.93 100.033 941.852 111.704C941.483 115.343 940.152 119.183 936.651 127.859V111.704C934.9 109.486 933.943 109.391 932.193 111.704ZM870.527 45.2865L857.897 68.6223C864.438 102.09 867.167 121.16 870.527 155.683C874.276 198.201 872.485 216.831 870.527 251.719L887.615 193.379C884.397 132.322 880.664 99.9056 870.527 45.2865ZM733.078 12.9753L736.05 23.7457L738.279 43.4914C747.612 56.5363 752.809 53.7031 762.054 42.5939C769.48 53.5665 774.546 52.6905 784.343 45.2865V15.6679L780.628 12.9753L778.399 28.2334C774.919 35.706 772.964 37.5287 769.484 28.2334L766.512 9.38519L759.825 18.3605L762.054 32.721C754.087 38.0162 750.234 37.6853 744.966 28.2334C745.242 18.6739 744.366 13.3546 739.765 4L733.078 12.9753ZM474.526 46.184L469.325 65.9297L536.935 24.6432L540.65 7.59013L474.526 46.184ZM369.025 63.2371L366.796 80.2902L423.262 41.6964L428.462 20.1556L369.025 63.2371ZM224.89 119.782V137.732L293.986 80.2902L298.443 63.2371L224.89 119.782ZM952.996 369.296C943.275 375.539 938.654 380.429 932.193 391.734C929.513 387.435 925.534 386.703 914.362 388.144C904.358 395.466 898.007 399.48 882.414 406.094H837.094L875.728 417.762C895.18 417.925 903.294 413.872 914.362 401.607C924.638 406.623 931.51 409.156 945.567 413.275C957.618 410.528 961.192 404.873 960.426 385.451L952.996 369.296ZM715.99 396.222L702.617 391.734C721.025 382.543 730.886 375.768 747.195 359.423L739.765 354.038L748.68 332.497C756.676 339.698 760.331 348.078 766.512 364.808L781.371 344.165C788.818 342.98 791.15 346.025 789.544 363.013L781.371 373.783L776.17 361.218C770.695 381.404 767.302 389.793 760.568 398.017C758.573 384.341 756.812 377.308 750.909 367.501C747.372 374.669 744.998 377.798 739.765 380.964C729.49 392.406 724.501 394.55 715.99 396.222ZM389.085 177.224L397.258 159.273H400.973V177.224C405.781 196.765 413.079 199.078 428.462 198.765C459.121 198.409 474.569 191.083 501.273 174.531C518.415 162.642 524.543 154.907 533.221 140.425C523.821 137.76 517.634 140.491 505.731 149.4C488.078 155.005 482.558 152.313 476.012 143.118C470.769 124.99 473.294 115.54 481.213 99.1384C487.496 81.3974 492.111 72.8098 505.731 64.1347C530.513 63.3231 538.749 71.0237 550.309 89.2656C555.826 117.268 552.319 125.673 545.851 140.425C533.683 171.347 525.583 180.687 510.931 196.072C475.344 227.26 456.863 232.996 424.748 236.461C403.894 236.413 395.478 231.931 389.085 212.228V177.224ZM35.4335 188.892C42.1202 188.892 45.722 178.51 47.3209 159.273C43.8106 167.397 41.7774 171.15 37.6624 171.839C32.4763 173.23 31.8659 170.443 32.4616 162.863C33.1847 144.809 36.8138 134.544 44.349 116.192C35.2109 134.174 30.7643 144.971 25.7749 167.351C24.9565 183.193 28.7468 188.892 35.4335 188.892ZM180.312 451.869L153.565 434.816L175.111 404.299L196.657 413.275L215.974 396.222L241.235 413.275L223.404 443.791L196.657 426.738L180.312 451.869ZM152.079 343.267C160.177 344.425 166.137 315.853 163.967 317.239C161.796 318.624 159.504 320.118 154.308 323.522C149.454 322.572 149.885 312.798 150.593 309.161L158.766 291.21C162.202 285.794 160.995 279.542 160.995 279.542C152.69 293.408 146.266 301.707 139.449 317.239C137.978 334.314 139.355 343.038 152.079 343.267ZM238.263 226.588C228.052 231.953 227.751 238.575 227.862 250.821H236.034L246.436 288.518L260.552 242.744C263.934 244.004 265.254 246.454 266.496 254.412L271.697 233.768C270.628 224.249 268.338 222.35 260.552 226.588L249.408 259.797C246.112 242.214 244.24 232.471 238.263 226.588ZM358.624 242.744C362.113 242.53 364.068 241.637 367.539 239.153C365.507 252.086 363.626 257.478 358.624 263.387C353.593 264.015 351.574 263.283 349.708 259.797C346.885 254.345 346.492 250.424 346.736 242.744C352.39 225.312 356.558 217.456 365.31 205.945L356.395 229.281C354.703 236.864 354.068 240.832 358.624 242.744ZM939.623 395.324C940.671 396.191 949.281 398.017 951.51 395.324C953.739 392.632 948.538 385.451 948.538 385.451C943.237 386.631 941.359 388.902 939.623 395.324ZM881.671 293.005C913.286 309.361 931.92 313.427 966.37 313.649C961.1 288.426 957.324 274.837 932.936 262.489C906.571 261.592 895.682 268.928 881.671 293.005ZM487.9 110.806C488.99 104.5 490.986 101.817 496.072 99.1384C507.937 98.9535 513.528 101.866 522.819 109.011C512.902 114.813 507.356 116.908 497.558 117.987C492.005 118.344 489.612 117.265 487.9 110.806Z" stroke="black" stroke-width="4"/>
</svg>
